<?xml version="1.0" encoding="UTF-8"?>
<!-- Generated by Pixelmator Pro 3.3.4 -->
<svg width="155" height="67" viewBox="0 0 155 67" xmlns="http://www.w3.org/2000/svg">
    <g id="g1">
        <path id="evol" fill="#3d2040" stroke="#3d2040" d="M 6.65222 57.318001 L 6.65342 57.319199 C 10.7683 61.479599 16.207899 63.5429 22.9198 63.5429 C 28.136101 63.5429 32.584499 62.287701 36.237301 59.750999 C 39.894299 57.230801 42.489101 54.152199 43.134602 49.4203 L 43.212002 48.852699 L 42.639198 48.852699 L 37.899799 48.852699 L 35.7519 48.852699 C 34.386002 48.852699 33.412701 49.9412 33.057899 51.0909 C 32.647202 52.422001 31.7694 53.387901 30.1868 54.380001 C 28.0429 55.7141 25.625099 56.384399 22.9198 56.384399 C 19.3486 56.384399 16.3585 55.196701 13.9175 52.823502 C 11.6123 50.556099 10.2279 47.0821 9.83265 42.320999 L 43.104698 42.320999 L 43.604698 42.320999 L 43.604698 41.820999 L 43.604698 39.948502 C 43.604698 32.5116 41.662701 26.685501 37.712101 22.543301 C 33.7943 18.405701 28.548599 16.354 22.0312 16.354 C 15.6474 16.354 10.4326 18.452103 6.43451 22.668503 L 6.43442 22.668602 C 2.4586 26.863602 0.5 32.6455 0.5 39.948502 C 0.5 47.310398 2.53126 53.123001 6.65222 57.318001 Z M 14.1585 26.503098 L 14.1609 26.5009 C 16.351101 24.480103 18.9655 23.470901 22.0312 23.470901 C 25.1852 23.470901 27.8255 24.482498 29.983801 26.498802 C 32.031898 28.412102 33.4175 31.2799 34.095299 35.162498 L 10.0473 35.162498 C 10.7005 31.253799 12.0872 28.389 14.1585 26.503098 Z M 90.495399 18.043999 L 90.781601 17.352699 L 90.033401 17.352699 L 79.750603 17.352699 L 79.393898 17.352699 L 79.277802 17.689899 L 67.859703 50.854401 L 56.673801 18.364403 C 56.465401 17.759102 55.895699 17.352699 55.255501 17.352699 L 43.993301 17.352699 L 42.1021 17.352699 L 43.746201 18.287399 L 45.643799 19.3661 C 46.110401 19.631401 46.5098 20.0005 46.811001 20.444801 L 47.624199 21.644302 L 48.957401 24.266197 L 50.9809 28.9091 L 55.503502 39.7934 L 63.836498 62.177101 L 63.957699 62.502602 L 64.305099 62.502602 L 71.7528 62.502602 L 72.086899 62.502602 L 72.214798 62.193901 L 90.495399 18.043999 Z M 98.090103 58.3088 L 98.092499 58.311401 C 102.038002 62.447601 107.281998 64.5 113.773003 64.5 C 120.291 64.5 125.537003 62.448101 129.453995 58.310101 C 133.404007 54.1409 135.345993 48.3158 135.345993 40.905602 C 135.345993 33.4687 133.404007 27.642601 129.453995 23.500401 C 125.536003 19.362801 120.290001 17.3111 113.773003 17.3111 C 107.281998 17.3111 102.038002 19.363503 98.092499 23.499702 L 98.091301 23.500999 C 94.169197 27.643402 92.2416 33.4692 92.2416 40.905602 C 92.2416 48.314999 94.169601 54.1395 98.090103 58.3088 Z M 153 62.502602 L 153.697006 62.502602 L 153.473999 61.842098 L 153.255997 61.200001 C 152.968002 60.352001 152.817001 59.464001 152.806 58.568699 L 152.179993 3.959839 C 152.158005 2.042641 150.597 0.5 148.679993 0.5 L 143.647995 0.5 L 143.147995 0.5 L 143.147995 1 L 143.147995 59.002602 C 143.147995 60.9356 144.714996 62.502602 146.647995 62.502602 L 153 62.502602 Z M 120.963997 52.360901 C 119.806999 53.742001 118.936996 54.403999 117.936996 54.747002 C 116.908997 55.099998 115.695 55.136101 113.773003 55.136101 C 111.899002 55.136101 110.528 54.940498 109.348999 54.428398 C 108.175003 53.918499 107.143997 53.074299 105.988998 51.695099 C 103.749001 48.993198 103.567001 46.5214 103.567001 40.905602 C 103.567001 35.291698 103.912003 32.683601 106.142998 30.0098 C 107.475998 28.701 108.464996 27.927799 109.556 27.468002 C 110.649002 27.007202 111.892998 26.841499 113.773003 26.841499 C 114.947998 26.841499 115.836998 26.959099 116.723 27.235901 C 117.615997 27.515198 118.528 27.9632 119.747002 28.653603 C 120.597 29.134598 121.322998 29.7575 121.758003 30.5555 C 123.070999 32.9594 123.556 36.165001 123.556 40.905602 C 123.556 46.516602 123.205002 49.6572 120.963997 52.360901 Z"/>
        <filter id="filter1" x="0" y="0" width="155" height="67" filterUnits="userSpaceOnUse" primitiveUnits="userSpaceOnUse" color-interpolation-filters="sRGB">
            <feGaussianBlur stdDeviation="2"/>
        </filter>
        <g id="Intersect" filter="url(#filter1)">
            <linearGradient id="linearGradient1" x1="77.4706" y1="56.6523" x2="113.353" y2="16.9871" gradientUnits="userSpaceOnUse">
                <stop offset="1e-05" stop-color="#844889" stop-opacity="1"/>
                <stop offset="0.535" stop-color="#9b6ba0" stop-opacity="0"/>
                <stop offset="0.983247" stop-color="#322433" stop-opacity="0"/>
            </linearGradient>
            <path id="path1" fill="url(#linearGradient1)" fill-rule="evenodd" stroke="none" d="M 90 18 L 73.389603 63 L 64.029701 63 L 64 62.910702 L 90 18 Z"/>
        </g>
    </g>
</svg>
