<svg width="155" height="67" viewBox="0 0 155 67" fill="none" xmlns="http://www.w3.org/2000/svg">
<g id="&#208;&#155;&#208;&#190;&#208;&#179;&#208;&#190;">
<path id="evol" d="M6.65222 57.318L6.65342 57.3192C10.7683 61.4796 16.2079 63.5429 22.9198 63.5429C28.1361 63.5429 32.5845 62.2877 36.2373 59.751C39.8943 57.2308 42.4891 54.1522 43.1346 49.4203L43.212 48.8527H42.6392H37.8998H35.7519C34.386 48.8527 33.4127 49.9412 33.0579 51.0909C32.6472 52.422 31.7694 53.3879 30.1868 54.38C28.0429 55.7141 25.6251 56.3844 22.9198 56.3844C19.3486 56.3844 16.3585 55.1967 13.9175 52.8235C11.6123 50.5561 10.2279 47.0821 9.83265 42.321H43.1047H43.6047V41.821V39.9485C43.6047 32.5116 41.6627 26.6855 37.7121 22.5433C33.7943 18.4057 28.5486 16.354 22.0312 16.354C15.6474 16.354 10.4326 18.4521 6.43451 22.6685L6.43442 22.6686C2.4586 26.8636 0.5 32.6455 0.5 39.9485C0.5 47.3104 2.53126 53.123 6.65222 57.318ZM14.1585 26.5031L14.1609 26.5009C16.3511 24.4801 18.9655 23.4709 22.0312 23.4709C25.1852 23.4709 27.8255 24.4825 29.9838 26.4988C32.0319 28.4121 33.4175 31.2799 34.0953 35.1625H10.0473C10.7005 31.2538 12.0872 28.389 14.1585 26.5031ZM90.4954 18.044L90.7816 17.3527H90.0334H79.7506H79.3939L79.2778 17.6899L67.8597 50.8544L56.6738 18.3644C56.4654 17.7591 55.8957 17.3527 55.2555 17.3527H43.9933H42.1021L43.7462 18.2874L45.6438 19.3661C46.1104 19.6314 46.5098 20.0005 46.811 20.4448L47.6242 21.6443L48.9574 24.2662L50.9809 28.9091L55.5035 39.7934L63.8365 62.1771L63.9577 62.5026H64.3051H71.7528H72.0869L72.2148 62.1939L90.4954 18.044ZM98.0901 58.3088L98.0925 58.3114C102.038 62.4476 107.282 64.5 113.773 64.5C120.291 64.5 125.537 62.4481 129.454 58.3101C133.404 54.1409 135.346 48.3158 135.346 40.9056C135.346 33.4687 133.404 27.6426 129.454 23.5004C125.536 19.3628 120.29 17.3111 113.773 17.3111C107.282 17.3111 102.038 19.3635 98.0925 23.4997L98.0913 23.501C94.1692 27.6434 92.2416 33.4692 92.2416 40.9056C92.2416 48.315 94.1696 54.1395 98.0901 58.3088ZM153 62.5026H153.697L153.474 61.8421L153.256 61.2C152.968 60.352 152.817 59.464 152.806 58.5687L152.18 3.95984C152.158 2.04264 150.597 0.5 148.68 0.5H143.648H143.148V1V59.0026C143.148 60.9356 144.715 62.5026 146.648 62.5026H153ZM120.964 52.3609C119.807 53.742 118.937 54.404 117.937 54.747C116.909 55.1 115.695 55.1361 113.773 55.1361C111.899 55.1361 110.528 54.9405 109.349 54.4284C108.175 53.9185 107.144 53.0743 105.989 51.6951C103.749 48.9932 103.567 46.5214 103.567 40.9056C103.567 35.2917 103.912 32.6836 106.143 30.0098C107.476 28.701 108.465 27.9278 109.556 27.468C110.649 27.0072 111.893 26.8415 113.773 26.8415C114.948 26.8415 115.837 26.9591 116.723 27.2359C117.616 27.5152 118.528 27.9632 119.747 28.6536C120.597 29.1346 121.323 29.7575 121.758 30.5555C123.071 32.9594 123.556 36.165 123.556 40.9056C123.556 46.5166 123.205 49.6572 120.964 52.3609Z" fill="#3D2040" stroke="#3D2040"/>
<g id="Intersect" filter="url(#filter0_f_101_116)">
<path fill-rule="evenodd" clip-rule="evenodd" d="M90 18L73.3896 63H64.0297L64 62.9107L90 18Z" fill="url(#paint0_linear_101_116)"/>
</g>
</g>
<defs>
<filter id="filter0_f_101_116" x="60" y="14" width="34" height="53" filterUnits="userSpaceOnUse" color-interpolation-filters="sRGB">
<feFlood flood-opacity="0" result="BackgroundImageFix"/>
<feBlend mode="normal" in="SourceGraphic" in2="BackgroundImageFix" result="shape"/>
<feGaussianBlur stdDeviation="2" result="effect1_foregroundBlur_101_116"/>
</filter>
<linearGradient id="paint0_linear_101_116" x1="77.4706" y1="56.6523" x2="113.353" y2="16.9871" gradientUnits="userSpaceOnUse">
<stop stop-color="#844889"/>
<stop offset="0.535" stop-color="#9B6BA0" stop-opacity="0"/>
<stop offset="0.983247" stop-color="#322433" stop-opacity="0"/>
</linearGradient>
</defs>
</svg>
