<svg xmlns="http://www.w3.org/2000/svg" viewBox="36 32 328 340" role="img">
<defs><linearGradient id="g" x1="0" x2="1"><stop offset="0" stop-color="#fff" stop-opacity=".38"/><stop offset=".35" stop-color="#fff" stop-opacity="0"/><stop offset=".75" stop-color="#000" stop-opacity="0"/><stop offset="1" stop-color="#000" stop-opacity=".28"/></linearGradient></defs>
<ellipse cx="200" cy="362" rx="112" ry="14" fill="#000" opacity=".10"/>
<path d="M90 90l22-12h176l22 12 8 258c0 12-60 20-118 20S82 360 82 348z" fill="#f2f2ee"/>
<path d="M90 90l22-12h176l22 12 8 258c0 12-60 20-118 20S82 360 82 348z" fill="url(#g)"/>
<path d="M90 90c40 10 180 10 220 0" fill="none" stroke="#000" stroke-opacity=".15" stroke-width="3"/>
<rect x="120" y="150" width="160" height="110" rx="8" fill="#fff" opacity=".92"/>
<rect x="140" y="172" width="120" height="14" rx="3" fill="#bcbcb9"/>
<rect x="150" y="196" width="100" height="10" rx="3" fill="#bcbcb9" opacity=".6"/>
<rect x="164" y="216" width="72" height="10" rx="3" fill="#bcbcb9" opacity=".4"/>
</svg>
